<?xml version="1.0" encoding="utf-8"?>
<svg xmlns="http://www.w3.org/2000/svg" width="64" height="64" viewBox="0 0 24 24" fill="none" stroke="#ffffff" stroke-width="2" stroke-linecap="round" stroke-linejoin="round" class="lucide lucide-folder-git-icon lucide-folder-git" xmlns:bx="https://boxy-svg.com">
  <defs>
    <linearGradient id="gradient-1" bx:pinned="true">
      <stop offset="0" style="stop-color: rgb(123, 50, 246);"/>
      <stop offset="1" style="stop-color: rgb(58, 24, 114);"/>
    </linearGradient>
    <linearGradient id="gradient-1-1" href="#gradient-1" gradientUnits="userSpaceOnUse" x1="12" y1="4.529" x2="12" y2="19.471"/>
  </defs>
  <path d="M 19.032 19.471 C 20.003 19.471 20.79 18.684 20.79 17.714 L 20.79 8.923 C 20.79 7.952 20.003 7.166 19.032 7.166 L 12.088 7.166 C 11.491 7.171 10.931 6.873 10.603 6.374 L 9.891 5.319 C 9.565 4.826 9.014 4.529 8.423 4.529 L 4.968 4.529 C 3.997 4.529 3.21 5.315 3.21 6.286 L 3.21 17.714 C 3.21 18.684 3.997 19.471 4.968 19.471 L 19.032 19.471 Z" style="stroke: url(&quot;#gradient-1-1&quot;); fill: rgb(22, 22, 22);"/>
  <circle cx="11.977" cy="13.17" r="1.758" style="stroke: rgb(8, 252, 245);"/>
  <path d="M 13.735 13.17 L 16.372 13.17" style="stroke: rgb(8, 252, 245);"/>
  <path d="M 7.582 13.17 L 10.219 13.17" style="stroke: rgb(8, 252, 245);"/>
</svg>